<svg xmlns="http://www.w3.org/2000/svg" width="25.545" height="19.869" viewBox="0 0 25.545 19.869">
  <defs>
    <style>
      .cls-1 {
        fill: #790081;
      }
    </style>
  </defs>
  <path id="cart-empty" class="cls-1" d="M25.545,10.41v.71a1.064,1.064,0,0,1-1.064,1.064h-.355l-1.158,8.107a2.129,2.129,0,0,1-2.107,1.828H4.685a2.129,2.129,0,0,1-2.107-1.828L1.419,12.184H1.064A1.064,1.064,0,0,1,0,11.12v-.71A1.064,1.064,0,0,1,1.064,9.346H4.051L8.787,2.834a1.419,1.419,0,1,1,2.3,1.669L7.561,9.346H17.985L14.463,4.5a1.419,1.419,0,0,1,2.3-1.669l4.736,6.511h2.987A1.064,1.064,0,0,1,25.545,10.41ZM13.837,18.216V13.249a1.064,1.064,0,0,0-2.129,0v4.967a1.064,1.064,0,0,0,2.129,0Zm4.967,0V13.249a1.064,1.064,0,1,0-2.129,0v4.967a1.064,1.064,0,0,0,2.129,0Zm-9.934,0V13.249a1.064,1.064,0,0,0-2.129,0v4.967a1.064,1.064,0,0,0,2.129,0Z" transform="translate(0 -2.25)"/>
</svg>
